<svg width="2427" height="610" viewBox="0 0 2427 610" fill="none" xmlns="http://www.w3.org/2000/svg">
<path fill-rule="evenodd" clip-rule="evenodd" d="M70.5296 256.438C70.5296 214.118 96.7026 195.948 136.442 193.535C189.475 190.215 234.247 203.211 236.724 265.997H254.648L252.547 176.065C226.88 171.383 188.386 164.185 144.276 164.185C53.9283 164.185 0 204.443 0 274.972C0 410.091 208.191 400.52 208.191 504.278C208.191 562.564 168.568 579.113 128.245 579.113C76.9885 579.113 25.6542 552.266 5.94015 540.762V592.615C19.299 595.831 68.636 609.229 117.999 609.229C206.297 609.229 278.552 574.652 278.552 483.098C278.552 346.098 70.5296 354.996 70.5296 256.438ZM508.791 572.084H458.974C427.017 572.084 418.664 570.89 418.664 535.055V392.128H496.184C534.51 392.128 548.647 412.646 548.647 447.328H566.61V312.831H548.647C544.743 333.855 540.437 362.025 496.184 362.025H418.664V234.675C418.664 203.924 427.017 201.304 458.974 201.304H508.921C551.215 201.304 578.075 214.806 578.075 265.997H596.103L594.106 171.188H287.384V185.325C346.306 194.897 348.303 194.897 348.303 258.384V602.238H605.26V550.865C585.429 562.304 555.469 572.084 508.791 572.084ZM944.718 586.804C931.255 593.795 874.538 610.915 807.744 609.242C677.424 606.051 625.96 525.418 625.96 381.895C625.96 263.481 661.173 164.198 804.087 164.198C903.824 164.198 942.824 207.776 949.867 259.006H872.969C869.869 237.827 856.42 194.261 798.133 194.261C710.51 194.261 696.334 299.952 696.334 365.864C696.334 437.756 704.362 578.828 827.99 578.828C883.695 578.828 930.373 549.192 944.718 534.523V586.804ZM1728.23 171.188H1597.07V185.325C1654.88 194.78 1657.87 194.988 1657.96 254.96L1657.86 602.238H1728.23V171.188ZM2385.52 171.188L2273.38 360.132L2164.63 171.188H1766.92V185.325C1825.84 194.897 1827.62 194.897 1827.62 258.384V602.238H1898.12V392.128H1975.65C2013.97 392.128 2028.11 412.646 2028.11 447.328H2046.2V312.831H2028.11C2024.2 333.855 2020.53 362.025 1975.65 362.025H1898.12V234.675C1898.12 203.924 1906.49 201.304 1938.42 201.304H2047.28C2080.92 201.304 2101.05 205.299 2123.42 243.028L2219.13 401.116V602.225H2289.4V401.116L2426.49 171.175H2385.52V171.188Z" fill="white"/>
<path fill-rule="evenodd" clip-rule="evenodd" d="M1638.16 49.6742C1638.15 43.1572 1639.43 36.7024 1641.91 30.6786C1644.4 24.6548 1648.05 19.18 1652.65 14.5669C1657.26 9.95392 1662.72 6.29314 1668.74 3.7937C1674.76 1.29425 1681.21 0.00510579 1687.73 0C1694.24 0.00851051 1700.69 1.30015 1706.71 3.80112C1712.73 6.30209 1718.19 9.96347 1722.79 14.5761C1727.39 19.1888 1731.04 24.6625 1733.52 30.6846C1736.01 36.7068 1737.28 43.1594 1737.27 49.6742C1737.29 62.8304 1732.08 75.4536 1722.79 84.7685C1713.5 94.0835 1700.89 99.3278 1687.73 99.3484C1681.21 99.3416 1674.76 98.0513 1668.74 95.5513C1662.73 93.0512 1657.26 89.3904 1652.66 84.7777C1648.05 80.1651 1644.4 74.6909 1641.92 68.6679C1639.43 62.6448 1638.15 56.1907 1638.16 49.6742Z" fill="white"/>
<path fill-rule="evenodd" clip-rule="evenodd" d="M1482.34 395.292C1536.66 380.403 1564.79 342.869 1564.79 285.905C1564.79 171.175 1449.58 171.175 1372.72 171.175H1215.38V185.312C1264.84 193.301 1274.08 194.663 1275.71 231.458V439C1275.71 502.656 1281.28 579.113 1171.29 579.113C1079.63 579.113 1073 501.593 1073 428.69L1072.9 171.175H941.929V185.312C999.061 194.559 1002.63 194.884 1002.74 252.897L1002.63 460.66C1002.63 556.156 1056.18 609.229 1164.46 609.229C1169.51 609.229 1174.8 608.969 1179.48 608.969C1285.58 608.969 1346.77 549.166 1346.95 454.72V403.048H1410.97L1537.58 602.199H1611.32L1482.34 395.292ZM1386.18 373.01H1346.56V239.461C1346.56 210.123 1361.71 201.407 1390.57 201.407L1400.59 201.304C1462.6 201.304 1498.24 218.592 1495.92 289.654C1493.56 361.376 1436.79 373.01 1386.18 373.01Z" fill="white"/>
</svg>
