<svg width="2500" height="588" viewBox="0 0 2500 588" fill="none" xmlns="http://www.w3.org/2000/svg">
<g clip-path="url(#clip0_1_12)">
<path d="M1217.5 439.539C1217.92 451.616 1209.18 459.105 1191.28 462.008C1186.29 462.851 1172.76 463.271 1150.72 463.271C1112.44 463.271 1084.15 455.27 1065.85 439.227C1047.55 423.203 1038.39 396.476 1038.39 359.026V83.1759C1038.39 61.9569 1048.59 51.3448 1068.97 51.3448H1100.18C1105.17 51.3448 1107.67 53.8453 1107.67 58.8363V143.092H1197.56C1202.97 143.092 1205.67 145.793 1205.67 151.206V191.152C1205.67 196.565 1202.97 199.266 1197.56 199.266H1115.8C1110.38 199.266 1107.68 201.966 1107.68 207.38V359.666C1107.68 378.407 1111.85 390.672 1120.18 396.491C1126.83 401.499 1139.94 403.995 1159.49 403.995C1158.24 403.995 1175.31 403.37 1210.67 402.107C1214.83 402.107 1216.91 404.182 1216.91 408.348L1217.5 439.539ZM1445.12 161.193L1444.49 191.152C1444.49 196.145 1442 198.641 1437.01 198.641C1411.2 197.798 1388.32 197.378 1368.37 197.378C1333.41 197.378 1315.94 212.156 1315.94 241.706V452.039C1315.94 457.03 1313.44 459.528 1308.45 459.528H1254.15C1249.16 459.528 1246.66 457.03 1246.66 452.039V252.316C1246.66 175.766 1288.06 137.476 1370.86 137.476C1396.66 137.476 1411.42 137.679 1415.18 138.084C1435.56 141.002 1445.54 148.711 1445.12 161.193ZM1757.28 427.057C1757.28 442.035 1749.37 450.991 1733.55 453.894C1701.11 460.136 1661.16 463.271 1613.73 463.271C1516.36 463.271 1467.68 430.817 1467.68 365.908C1467.68 336.777 1479.34 314.528 1502.63 299.127C1519.28 288.313 1544.25 279.981 1577.53 274.16C1595.02 271.088 1612.5 267.962 1629.97 264.783C1657.43 259.79 1674.91 255.421 1682.38 251.676C1686.13 250.008 1688 246.06 1688 239.833C1688 221.11 1680.1 208.41 1664.28 201.761C1653.88 197.595 1637.45 195.52 1614.99 195.52C1586.28 195.52 1559.65 196.77 1535.09 199.281L1498.9 203.634C1494.74 203.634 1492.66 201.559 1492.66 197.393L1492.04 168.682C1491.62 154.53 1499.11 146.215 1514.51 143.718C1539.47 139.567 1574.22 137.491 1618.74 137.491C1664.1 137.491 1697.6 145.403 1719.22 161.208C1744.61 179.932 1757.29 210.92 1757.29 254.189V427.057H1757.28ZM1688.62 400.219V307.849L1571.93 329.693C1549.44 333.859 1538.21 345.936 1538.21 365.908C1538.21 392.963 1565.05 406.475 1618.72 406.475C1649.51 406.475 1672.8 404.385 1688.62 400.219ZM2097.93 147.446C2097.93 151.614 2097.3 154.312 2096.06 155.56L1979.97 452.021C1979.97 457.438 1975.8 460.136 1967.47 460.136H1901.31C1893.82 460.136 1888.41 457.435 1885.08 452.021L1777.11 155.56C1775.86 154.312 1775.24 151.614 1775.24 147.446C1775.24 143.277 1777.94 141.19 1783.35 141.19H1830.78C1843.27 141.19 1852.43 145.355 1858.25 153.689L1936.89 393.96H1938.76L2021.13 153.689C2026.96 145.355 2034.66 141.19 2044.24 141.19H2089.8C2095.23 141.205 2097.93 143.28 2097.93 147.446ZM2400.37 231.097C2400.37 261.88 2390.38 284.772 2370.42 299.735C2355.02 310.547 2330.26 319.084 2296.13 325.34L2173.18 347.184C2178.18 370.481 2189.61 386.084 2207.51 393.978C2219.99 399.391 2240.17 402.092 2268.07 402.092C2283.87 402.092 2305.09 401.062 2331.73 398.986L2372.3 396.476C2376.87 396.476 2379.36 399.176 2379.78 404.587L2381.04 433.938C2381.86 450.571 2364.38 460.356 2328.59 463.271H2258.07C2201.07 463.271 2159.88 449.544 2134.49 422.081C2110.37 396.271 2098.31 354.673 2098.31 297.254C2098.31 241.099 2110.48 200.421 2134.82 175.251C2159.16 150.084 2199.21 137.494 2254.96 137.494C2351.91 137.476 2400.37 168.682 2400.37 231.097ZM2329.85 232.329C2329.85 206.537 2306.56 193.647 2259.95 193.647C2225 193.647 2201.18 199.998 2188.47 212.683C2175.79 225.371 2169.44 249.195 2169.44 284.132V294.741L2268.67 276.643C2290.32 272.475 2304.25 268.934 2310.51 266.031C2323.39 259.385 2329.85 248.153 2329.85 232.329ZM2499 451.399C2499 455.97 2496.5 458.25 2491.5 458.25H2438.44C2432.62 458.25 2429.71 455.97 2429.71 451.399V36.352C2429.71 15.553 2440.11 5.146 2460.91 5.146H2491.49C2496.48 5.146 2498.98 7.64147 2498.98 12.6349V451.399H2499Z" fill="white"/>
<path d="M427.759 13.155C427.759 3.81817 421.665 -0.00256348 413.974 -0.00256348H365.465C346.226 -0.00256348 332.503 9.64428 332.503 33.1413V448.668C332.503 457.875 338.629 461.856 346.386 461.856H394.798C414.079 461.856 427.759 452.209 427.759 428.669V13.155ZM982.19 153.317C982.19 145.528 976.439 141.675 968.575 141.675H909.704C897.914 141.675 892.683 145.835 888.31 155.387L805.324 339.605L689.589 157.32C682.525 145.985 674.896 141.675 657.738 141.675H587.78C573.289 141.675 565.458 145.525 556.836 154.79L433.62 287.16L544.084 448.253C550.497 457.505 555.831 461.848 565.458 461.848H631.328C641.187 461.848 646.928 457.88 646.928 449.598C646.928 444.583 644.515 441.297 641.187 436.614L544.084 292.846L617.723 213.511L763.281 428.674L699.033 564.595C697.273 568.641 695.108 572.492 695.108 576.345C695.108 584.222 700.879 587.997 708.753 587.997H767.164C779.031 587.997 784.175 583.912 788.528 574.34L978.339 165.097C980.185 161.053 982.19 157.32 982.19 153.317ZM119.54 252.431C100.194 248.077 94.1851 242.604 94.1851 232.852C94.1851 225.263 100.194 219.212 117.652 219.212H258.889C282.429 219.212 291.935 205.469 291.935 186.273V155.497C291.935 147.751 288.06 141.67 278.8 141.67H113.371C39.6472 141.67 1.00977 184.403 1.00977 238.751C1.00977 287.162 30.7279 316.626 90.2168 329.858L185.133 351.092C204.436 355.36 210.422 360.909 210.422 370.778C210.422 378.26 204.436 384.308 187.063 384.308H39.8097C16.2677 384.308 6.75086 397.956 6.75086 417.272V447.981C6.75086 455.612 10.5516 461.853 19.8109 461.853H181.322C268.481 461.853 303.63 419.16 303.63 368.58C303.63 316.325 273.517 286.855 214.446 273.675L119.54 252.431Z" fill="white"/>
</g>
<defs>
<clipPath id="clip0_1_12">
<rect width="2500" height="588" fill="white"/>
</clipPath>
</defs>
</svg>
