<svg width="2428" height="348" viewBox="0 0 2428 348" fill="none" xmlns="http://www.w3.org/2000/svg">
<path fill-rule="evenodd" clip-rule="evenodd" d="M0.858887 347.229V0.677246H93.8521V133.111H242.187V0.677246H335.168V347.229H242.187V207.052H93.8521V347.229H0.858887ZM361.457 0.677246L508.69 209.27V347.229H601.67V209.27L747.788 0.677246H640.411L555.187 124.279L468.834 0.677246H361.457ZM774.077 0.677246V347.229H1013.19C1049.71 347.229 1107.27 332.885 1106.17 258.931V0.677246H1013.19V234.652C1013.19 261.136 998.805 271.071 972.23 271.071H867.071V0.677246H774.077ZM1163.46 347.229V0.677246H1402.57C1439.09 0.677246 1496.65 15.0218 1495.53 88.9754V347.229H1402.57V113.255C1402.57 86.7705 1388.18 76.8357 1361.61 76.8357H1256.44V347.229H1163.46ZM2427.33 347.229V0.677246H2334.34V347.229H2427.33ZM1794.18 0.677246H1552.83V347.229H1794.16C1839.56 347.229 1887.16 321.847 1887.16 258.931V80.143C1887.16 44.8263 1879.41 0.677246 1794.18 0.677246ZM1794.18 237.959C1794.18 250.112 1790.86 266.661 1767.6 267.764H1645.83V80.143H1769.83C1785.3 80.143 1794.18 91.1803 1794.18 105.525V237.959ZM2030.8 0.677246C1969.9 0.677246 1942.24 29.3664 1942.24 80.143V347.229H2035.23V263.341H2181.35V347.229H2274.34V0.677246H2030.8ZM2181.34 192.409H2035.22V111.841C2035.22 88.6641 2044.06 80.9341 2064 79.8317H2181.34V192.409Z" fill="white"/>
</svg>
