<svg width="2500" height="574" viewBox="0 0 2500 574" fill="none" xmlns="http://www.w3.org/2000/svg">
<g clip-path="url(#clip0_1_16)">
<path fill-rule="evenodd" clip-rule="evenodd" d="M989.273 468.293C995.77 468.293 1016.76 467.297 1024.26 457.801L1053.49 430.563C1066.74 416.32 1079.98 423.067 1079.98 436.311V574H621.685C608.441 574 600.941 560.003 615.188 546.762L659.669 506.03C666.916 500.532 670.414 492.533 669.914 483.287V201.161C670.414 192.165 666.916 184.169 659.669 178.671L615.188 137.939C600.945 124.695 608.441 111.451 621.685 111.451H1079.98V249.39C1079.98 262.634 1066.74 269.381 1053.49 255.137L1024.26 227.649C1016.76 218.154 995.77 217.404 989.273 217.404H843.837L843.587 290.622H1008.76C1017.76 290.622 1025.26 298.118 1025.26 307.114V374.581C1025.26 383.577 1017.76 390.824 1008.76 390.824H843.587L843.837 468.29L989.273 468.293ZM78.6753 463.549V133.191C78.6753 124.695 79.4249 112.45 69.1795 103.954L8.70617 50.9775C-7.28676 38.7329 2.95871 22.74 16.2029 22.74H449.012C514.983 22.74 577.455 88.9607 579.204 160.679C581.203 232.397 558.463 273.879 513.233 287.123C548.968 298.372 594.447 322.854 596.197 424.812C598.196 526.764 531.975 573.997 445.013 573.997H16.2029C2.95871 573.997 -7.29024 558 8.70617 545.756L69.1795 492.779C79.4249 484.29 78.6753 472.042 78.6753 463.549ZM265.593 249.39L334.063 249.89C409.279 249.89 409.279 135.69 334.063 135.69H265.593V249.39ZM265.593 468.293L338.311 468.543C420.025 468.543 419.775 351.848 338.311 346.351H265.593V468.293ZM1123.46 342.602C1123.46 185.168 1125.21 111.451 1293.14 111.451H1529.29V249.39C1529.29 262.634 1516.04 269.381 1502.8 255.137L1473.56 227.649C1466.07 218.154 1445.32 217.404 1438.58 217.404H1369.61C1346.12 217.404 1308.38 228.649 1308.38 290.622V394.572C1308.38 457.045 1346.12 468.29 1369.61 468.29H1438.58C1445.32 468.29 1466.07 467.294 1473.56 457.798L1502.8 430.56C1516.04 416.316 1529.29 423.063 1529.29 436.307V573.997H1293.14C1125.21 574 1123.46 500.532 1123.46 342.602ZM1831.65 574H1584.26C1571.02 574 1564.27 560.756 1578.52 547.758L1613.5 513.527C1623 506.03 1623.75 490.03 1623.75 483.287V202.161C1623.75 195.664 1623 179.421 1613.5 171.924L1578.52 137.939C1564.27 124.695 1571.02 111.451 1584.26 111.451H1831.65C1844.9 111.451 1851.4 124.695 1837.4 137.939L1802.42 171.924C1792.92 179.421 1791.92 195.664 1791.92 202.161V329.355L1899.62 193.664C1905.87 185.918 1905.12 174.923 1897.88 168.176L1866.64 136.19C1855.14 125.698 1859.14 111.451 1873.13 111.451H2109.28C2120.78 111.451 2126.27 118.198 2117.77 129.446L1973.34 325.61L2160.51 557.008C2167.01 563.751 2165.01 574 2153.76 574H1919.62C1904.37 574 1901.62 560.756 1907.12 553.256C1918.62 540.012 1923.36 531.515 1912.87 520.27L1791.92 370.09V483.287C1791.92 490.03 1792.92 506.03 1802.41 513.527L1837.4 547.758C1851.39 560.752 1844.9 574 1831.65 574ZM2185 0H2348.42C2359.67 0 2363.42 13.2442 2355.92 22.74L2267.21 143.687C2262.71 151.433 2254.47 155.681 2245.47 154.932H2147.26C2134.77 154.932 2133.02 143.687 2138.77 136.19L2193.49 62.4724C2198.24 56.725 2198.49 48.7285 2194.49 42.4812L2174.5 18.9916C2168.01 10.4954 2168.01 0 2185 0ZM2476.87 200.412V300.121C2476.87 318.113 2459.87 311.862 2457.12 307.368C2446.13 291.621 2421.14 283.375 2412.14 283.375H2337.43C2309.44 283.375 2309.44 325.86 2337.43 325.86H2374.91C2524.84 323.107 2556.33 574 2374.91 574H2190.99C2182.5 574 2179.25 565.004 2179.25 559.506V436.311C2179.25 423.067 2196.24 417.819 2206.24 431.056L2233.22 463.046C2247.21 477.789 2289.45 476.793 2304.94 476.793C2359.17 476.793 2360.41 408.32 2304.44 406.824C2279.45 406.071 2253.21 405.075 2253.21 405.075C2113.27 396.079 2122.27 182.669 2261.46 186.168H2461.62C2474.87 186.168 2476.87 194.664 2476.87 200.412Z" fill="white"/>
</g>
<defs>
<clipPath id="clip0_1_16">
<rect width="2500" height="574" fill="white"/>
</clipPath>
</defs>
</svg>
