<svg width="2500" height="542" viewBox="0 0 2500 542" fill="none" xmlns="http://www.w3.org/2000/svg">
<g clip-path="url(#clip0_1_18)">
<path d="M0 218.222V436.278H81.6667C148.056 436.278 163.889 435.444 166.389 432.389C168.611 429.611 169.444 412.389 169.444 376C168.889 332.667 169.722 323.5 173.056 322.944C175 322.389 195.556 341.833 218.056 366C240.833 390.167 265 415.167 271.667 421.556L283.889 433.5H380.833C441.944 433.5 477.778 432.389 477.778 430.722C477.778 429.333 432.5 382.389 377.222 326.278C321.667 270.444 276.111 222.389 275.556 219.333C275 216.278 278.056 210.444 282.5 206C291.111 197.389 299.444 187.944 330.556 152.944C341.944 139.889 359.167 121.278 368.333 111.278C377.778 101.278 390.833 86.8334 397.222 79.3334C403.889 71.5556 419.167 54.3334 431.667 41C444.167 27.3889 454.167 14.8889 454.167 13.2222C454.167 10.7222 430.556 9.61113 366.944 9.05558L280 8.50002L265.278 22.9445C257.5 31 238.056 52.1111 222.222 69.6111C206.389 87.1111 188.611 106.556 182.222 112.667L171.111 123.778L169.167 116.833C168.056 112.944 167.222 89.0556 166.944 63.7778C166.667 38.2222 165.833 13.5 165 8.7778L163.333 0.166687H0L0 218.222ZM489.444 216L490.278 432.111H623.611L624.444 225.167C624.722 111.278 624.444 14.0556 623.611 9.05558L621.944 0.166687H488.889L489.444 216ZM647.778 42.3889L648.611 84.8889H781.944L782.778 42.3889L783.611 0.166687H646.944L647.778 42.3889ZM2001.39 9.05558C2000.56 14.0556 2000.28 111.833 2000.56 226.556L2001.39 434.889H2145.83L2146.67 328.222C2146.94 256 2148.33 220.167 2150.28 217.944C2156.67 210.167 2171.39 205.167 2190.56 203.778C2214.44 201.833 2234.44 209.056 2238.89 221C2240.56 225.444 2241.67 269.056 2241.67 329.333C2241.67 418.778 2242.22 430.444 2246.11 431.833C2248.61 432.667 2278.89 433.5 2313.89 433.5C2369.17 433.5 2377.5 432.944 2378.89 429.056C2379.72 426.556 2380.56 369.333 2380.56 301.833C2380.56 160.167 2380.56 160.444 2358.33 141.278C2343.06 128.222 2331.39 123.222 2302.78 118.222C2263.06 111 2206.67 114.611 2181.39 125.722C2174.72 128.778 2164.72 135.444 2159.44 141C2151.39 148.778 2148.89 150.167 2146.94 147.111C2145.56 144.889 2144.44 114.333 2144.72 79.0556C2144.72 44.0556 2143.89 11.8334 2143.06 7.66669L2141.11 0.166687H2003.06L2001.39 9.05558ZM1323.61 126.833C1254.72 134.889 1210.56 155.444 1193.61 187.389C1188.61 196.833 1187.5 203.222 1187.5 225.167C1187.5 247.944 1188.61 253.222 1193.89 261.833C1206.94 282.944 1228.06 296.278 1263.89 306.278C1278.06 310.444 1296.11 311.833 1348.61 312.944C1385.28 313.778 1420.56 315.722 1427.22 317.389C1449.72 323.222 1457.5 345.722 1442.5 361C1436.39 366.833 1430 369.333 1413.33 372.111C1392.78 375.722 1382.5 375.167 1348.61 368.222C1345.56 367.389 1337.22 362.111 1329.72 356L1316.39 344.889L1253.33 345.444C1218.61 345.722 1188.33 346.556 1186.11 347.389C1182.5 348.5 1181.94 339.889 1181.67 279.333C1181.67 219.889 1180.83 207.667 1176.39 194.611C1162.22 152.111 1126.39 129.611 1066.94 126.278C1037.5 124.611 1015.28 127.111 997.222 134.056C983.056 139.333 955.556 155.722 955.556 158.778C955.556 160.167 953.611 161.278 951.389 161.278C947.5 161.278 945.833 157.389 943.889 143.222C943.055 137.944 940.833 137.667 875 137.667H806.944L806.111 339.611L805.556 541.833H941.667V477.944C941.667 442.667 942.222 414.056 942.778 414.056C943.333 414.056 950 416.556 957.5 419.889C985.833 432.111 1009.72 436.278 1051.94 436.278C1093.61 436.278 1107.5 433.778 1133.33 421.556C1151.67 412.944 1169.72 393.222 1177.78 372.389L1184.72 354.611L1188.33 368.222C1193.06 384.889 1214.72 407.389 1234.72 416.556C1242.5 419.889 1250.83 424.056 1253.33 425.444C1256.11 426.833 1260 427.944 1262.5 427.944C1264.72 427.944 1271.94 429.611 1278.33 431.833C1285 434.056 1310.28 437.944 1334.72 440.167C1377.78 444.333 1417.5 443.5 1470.83 437.389C1498.06 434.333 1536.11 421.556 1555 409.056C1578.33 393.778 1589.44 375.722 1594.44 344.056C1596.94 328.5 1596.67 324.333 1592.5 316.278C1590 311.278 1586.11 303.222 1583.89 298.778C1581.67 294.056 1575.56 286 1570.56 280.722C1548.33 257.389 1519.17 251 1405.56 244.889C1357.78 242.111 1336.67 237.111 1327.78 225.722C1311.94 206 1327.78 195.167 1379.72 190.444C1393.33 189.056 1422.22 194.333 1430.56 199.611C1434.44 201.833 1439.17 206.278 1441.11 209.056C1444.44 213.5 1449.17 214.056 1487.22 214.056C1510.56 214.056 1541.11 213.222 1555 212.389C1578.89 210.444 1580.56 210.167 1580.56 204.333C1580.56 194.889 1571.94 171.833 1564.72 162.389C1556.94 152.111 1532.5 139.611 1509.72 134.333C1460.83 123.222 1380.28 119.889 1323.61 126.833ZM1031.94 201.833C1035.28 204.056 1039.44 209.056 1041.11 212.944C1045.56 222.111 1045.56 352.667 1041.39 361.833C1035.28 374.889 1025.28 379.333 1001.39 379.333C983.056 379.333 977.5 378.222 968.611 372.667C962.778 369.333 956.389 362.944 954.444 359.056C949.444 348.778 945.556 227.944 950 219.333C953.611 212.667 977.222 201 995 197.389C1009.17 194.611 1023.33 196.278 1031.94 201.833ZM1748.61 125.722C1670.83 134.611 1619.72 175.444 1601.67 243.5C1596.94 261.833 1595.56 318.222 1599.72 321C1601.11 321.833 1603.33 326.556 1604.44 331.556C1610.56 359.333 1636.94 393.5 1663.06 407.111C1668.89 409.889 1675.28 413.778 1677.5 415.167C1686.11 421.833 1721.94 432.389 1750 436.833C1773.33 440.444 1841.11 440.444 1862.5 436.833C1924.44 426.278 1965.56 398.778 1979.72 357.944C1984.72 343.222 1988.61 319.611 1986.94 314.889C1985.83 312.111 1970.83 311.278 1920.83 311.278H1856.11L1854.17 319.889C1848.61 345.167 1831.39 358.5 1804.72 358.5C1779.72 358.5 1765 349.333 1751.39 325.167C1746.67 316.833 1745.83 310.444 1745.83 277.944C1746.11 244.056 1746.67 239.333 1752.5 228.778C1756.11 222.111 1762.5 213.778 1767.22 209.889C1774.72 203.778 1778.33 202.111 1795 198.778C1803.06 197.389 1826.11 203.5 1834.17 209.333C1838.61 212.389 1845.83 221 1850.56 228.222L1858.89 241.833L1901.67 242.389C1925.28 242.667 1953.61 243.222 1964.72 243.222H1984.72L1985.56 235.167C1988.06 214.889 1970.56 180.444 1948.89 162.944C1935 151.278 1912.5 139.611 1893.33 134.333C1858.89 124.333 1794.44 120.444 1748.61 125.722ZM649.167 138.222C648.056 139.056 647.222 204.611 647.222 283.5C647.222 402.111 647.778 427.944 651.111 430.444C653.611 432.667 673.889 433.5 718.333 432.944L781.944 432.111L782.778 284.056L783.333 136.278H717.222C680.833 136.278 650 137.111 649.167 138.222ZM2437.5 247.667C2436.39 249.056 2432.5 251.556 2428.89 252.944C2425.28 254.333 2422.22 257.389 2422.22 259.611C2422.22 261.556 2420.28 264.889 2418.06 266.833C2415.28 269.056 2413.89 275.167 2413.89 284.056C2413.89 295.444 2415.56 299.889 2422.5 308.778C2431.11 319.611 2441.67 323.222 2441.67 315.444C2441.67 313.222 2440.28 311.278 2438.61 311.278C2436.67 311.278 2432.5 308.222 2428.89 304.056C2419.72 294.333 2419.72 277.111 2429.17 263.222C2436.67 252.667 2440 251.556 2461.11 252.667C2475.28 253.5 2488.89 269.333 2488.89 285.444C2488.89 292.111 2487.78 297.389 2486.67 297.389C2485.28 297.389 2482.78 300.444 2481.11 304.333C2479.44 308.222 2476.11 311.278 2473.61 311.278C2471.39 311.278 2469.44 313.222 2469.44 315.444C2469.44 317.667 2471.11 319.611 2473.06 319.611C2478.33 319.333 2488.89 309.333 2488.89 304.333C2488.89 301.833 2491.39 299.056 2494.44 298.222C2499.17 297.111 2500 294.333 2500 283.222C2500 272.944 2498.89 269.611 2495.83 269.611C2493.33 269.611 2490.28 266.556 2488.89 262.944C2487.5 259.333 2483.89 255.444 2480.83 254.333C2478.06 253.5 2474.72 251 2473.89 248.778C2472.22 243.778 2440.28 242.944 2437.5 247.667Z" fill="white"/>
<path d="M2439.44 282.944C2440.28 304.889 2444.44 310.444 2447.5 294.611C2449.72 283.5 2452.22 281.278 2454.44 287.944C2455.56 290.722 2459.44 296.278 2463.06 299.889C2468.06 305.167 2469.44 305.444 2469.44 301.833C2469.44 299.333 2468.33 297.389 2466.67 297.389C2462.22 297.389 2463.61 287.111 2468.33 285.167C2471.39 284.056 2472.22 280.444 2471.67 273.222L2470.83 262.667L2454.72 262.111L2438.61 261.833L2439.44 282.944ZM2462.5 273.778C2462.5 279.889 2453.89 282.944 2449.44 278.5C2444.72 273.778 2449.17 266.278 2456.11 267.389C2460.28 267.944 2462.5 270.167 2462.5 273.778Z" fill="black"/>
</g>
<defs>
<clipPath id="clip0_1_18">
<rect width="2500" height="542" fill="white"/>
</clipPath>
</defs>
</svg>
