<svg width="2500" height="1042" viewBox="0 0 2500 1042" fill="none" xmlns="http://www.w3.org/2000/svg">
<path d="M318.922 46.2643C318.01 51.1288 315.578 59.6415 313.45 65.4179C305.849 85.4836 301.897 97.3406 299.465 106.461C297.945 111.326 295.208 120.447 293.08 126.223C291.256 131.999 287.912 141.728 285.784 147.505C283.656 153.281 280.311 163.01 278.487 168.787C276.359 174.563 273.319 183.38 272.103 188.548C270.582 193.413 262.374 217.431 253.861 241.753C245.348 266.075 237.14 289.789 235.62 294.957C232.883 305.294 227.107 321.711 222.546 332.96C221.026 337.217 218.594 344.513 217.378 349.682C215.858 354.546 213.122 363.667 210.994 369.443C209.169 375.22 205.825 384.949 203.697 390.725C201.569 396.501 198.224 406.23 196.4 412.007C194.272 417.783 191.232 426.6 190.016 431.768C188.496 436.633 180.287 460.651 171.774 484.973C163.262 509.295 155.053 533.009 153.533 538.177C150.188 550.338 144.716 566.148 139.548 578.613C137.115 584.085 135.291 590.47 135.291 592.902C135.291 595.334 133.467 601.719 131.035 607.191C125.866 619.656 120.394 635.465 117.05 647.626C115.53 652.491 107.321 676.509 98.8082 700.831C90.2955 725.153 82.0868 748.867 80.5667 754.035C79.3506 758.9 76.3103 768.02 74.1821 773.797C72.358 779.573 69.0137 789.302 66.8855 795.079C64.7573 800.855 61.4131 810.584 59.5889 816.36C57.4607 822.137 54.7245 830.954 53.2044 836.122C51.9883 840.986 49.5561 848.587 48.0359 852.843C43.1715 864.396 37.6991 880.814 34.9629 890.847C33.4427 895.711 25.2341 919.729 16.7213 944.051C7.90461 968.373 0.608009 990.871 0.608009 994.215C-4.19892e-05 1000.3 2.12815 1000.3 326.219 1001.21C587.985 1001.82 652.134 1001.21 652.134 997.864C652.134 995.735 649.398 986.615 645.75 977.494C642.405 968.373 638.453 956.516 636.933 951.652C635.413 946.483 632.677 937.667 630.548 931.89C628.724 926.114 625.38 916.385 623.252 910.608C621.124 904.832 617.779 895.103 615.955 889.326C613.827 883.55 611.091 874.429 609.571 869.565C608.051 864.396 605.314 855.58 603.186 849.803C601.362 844.027 598.018 834.298 595.89 828.521C593.761 822.745 590.417 813.016 588.593 807.24C586.465 801.463 583.424 792.342 582.208 787.478C580.688 782.31 572.48 758.596 563.967 734.274C555.454 709.952 547.245 685.934 545.725 681.069C544.509 675.901 541.469 667.084 539.341 661.308C537.517 655.531 534.172 645.802 532.044 640.026C529.916 634.249 526.572 624.52 524.748 618.744C522.619 612.967 519.883 603.847 518.363 598.982C516.843 593.814 514.107 584.997 511.979 579.221C510.154 573.444 506.81 563.715 504.682 557.939C502.554 552.162 499.21 542.434 497.385 536.657C495.257 530.881 492.217 521.76 491.001 516.895C489.481 511.727 481.272 488.013 472.759 463.691C464.247 439.369 456.038 415.351 454.518 410.487C453.302 405.318 450.261 396.501 448.133 390.725C446.309 384.949 442.965 375.22 440.837 369.443C438.708 363.667 435.364 353.938 433.54 348.161C431.412 342.385 428.676 333.264 427.155 328.4C425.635 323.231 422.899 314.415 420.771 308.638C418.947 302.862 415.603 293.133 413.474 287.356C411.346 281.58 408.002 271.851 406.178 266.075C404.05 260.298 401.009 251.177 399.793 246.313C398.273 241.145 388.24 211.046 376.991 179.427C366.046 147.505 355.71 117.406 354.189 112.542C350.845 100.381 345.373 84.2675 340.204 72.1065C337.772 66.634 335.948 59.6415 335.948 56.9052C335.948 50.5207 327.739 38.0557 323.787 38.0557C322.267 38.0557 320.139 41.704 318.922 46.2643ZM329.259 634.553C331.996 638.202 348.413 682.589 354.189 702.351C357.23 712.992 365.134 736.098 376.079 766.196C390.064 803.591 394.625 821.529 392.193 825.785C389.76 829.738 260.854 829.434 258.421 825.481C256.597 822.441 259.334 812.104 267.846 788.086C283.352 745.523 287.304 734.578 290.344 723.633C291.864 718.464 295.817 706.911 299.465 697.791C303.113 688.67 307.066 676.813 308.586 671.948C309.802 666.78 312.234 659.483 314.058 655.227C315.882 650.971 318.01 643.978 318.922 639.114C321.051 630.297 324.395 628.777 329.259 634.553ZM667.64 343.297C665.207 346.337 664.599 435.113 664.903 673.773L665.815 1000.3L760.975 1001.21L855.831 1001.82V757.988C855.831 609.623 857.047 512.031 858.871 509.295C861.304 505.647 873.465 504.43 931.837 503.822C982.61 503.214 1003.59 503.822 1006.63 506.559C1010.28 509.599 1010.88 547.602 1010.88 755.859V1001.82L1106.04 1001.21L1200.9 1000.3L1201.81 746.435C1202.72 464.907 1202.72 467.643 1182.96 428.728C1173.23 409.879 1130.37 363.363 1122.77 363.363C1120.33 363.363 1116.99 361.843 1114.86 359.714C1109.69 354.546 1091.45 348.465 1067.13 343.297C1036.42 337.217 672.808 336.913 667.64 343.297ZM1277.51 341.169C1276.3 342.081 1275.39 491.357 1275.39 672.556V1001.82H1722.3L1721.7 917.601L1720.78 833.082L1594.61 831.562L1468.44 830.042V747.955L1595.52 747.043L1722.3 746.435V582.261L1595.52 581.653L1468.44 580.741V504.734L1591.57 504.126C1659.37 503.822 1716.53 503.214 1718.65 503.214C1721.7 503.214 1722.3 485.885 1721.7 421.736L1720.78 340.561L1500.06 339.649C1378.75 339.345 1278.43 339.953 1277.51 341.169ZM1752.71 342.689C1753.01 344.817 1757.57 354.85 1763.35 364.883C1769.12 374.916 1777.03 389.205 1780.98 396.806C1785.24 404.406 1791.32 415.351 1794.66 421.128C1798.31 426.904 1804.69 438.457 1808.95 446.97C1813.21 455.178 1819.59 467.035 1823.24 472.812C1826.58 478.588 1832.66 489.533 1836.92 497.134C1840.87 504.734 1846.65 514.767 1849.69 519.936C1854.25 527.84 1862.15 542.13 1885.56 585.301C1888 589.558 1892.56 597.766 1896.21 603.543C1899.55 609.319 1905.63 620.264 1909.89 627.865C1913.84 635.465 1920.53 647.322 1924.48 654.619L1931.78 667.692L1914.14 697.183C1904.72 713.296 1895.9 728.801 1894.69 731.233C1893.47 733.666 1889.82 739.746 1886.48 744.914C1883.13 749.779 1879.18 756.771 1877.36 760.116C1875.53 763.46 1871.58 770.149 1868.24 775.317C1864.89 780.181 1861.24 786.566 1860.03 788.998C1858.81 791.43 1852.12 802.983 1845.43 814.84C1838.44 826.393 1832.06 838.25 1830.84 840.682C1829.62 843.115 1825.98 849.195 1822.63 854.364C1819.29 859.228 1815.33 866.221 1813.51 869.565C1811.69 872.909 1807.73 879.598 1804.39 884.766C1801.05 889.631 1797.4 896.015 1796.18 898.447C1794.97 900.879 1784.02 920.033 1771.86 940.707C1759.7 961.076 1749.67 979.318 1749.67 980.534C1749.67 981.75 1747.54 984.486 1745.11 986.615C1742.67 988.743 1740.54 992.999 1740.54 996.039C1740.54 1001.51 1744.5 1001.82 1836.01 1001.82C1908.67 1001.82 1932.08 1000.9 1934.21 997.864C1936.03 996.039 1942.42 984.486 1948.8 972.933C1955.19 961.076 1963.7 946.179 1967.35 939.491C1971 932.802 1977.68 921.249 1981.64 913.649C1985.89 906.048 1991.97 895.103 1995.32 889.326C1998.97 883.55 2004.74 872.605 2008.7 865.004C2021.16 840.074 2027.24 835.514 2032.41 847.675C2034.23 851.323 2040.01 862.268 2045.48 871.693C2050.65 881.118 2058.86 895.711 2063.12 903.616C2067.68 911.52 2074.06 923.073 2077.4 928.85C2081.05 934.626 2087.44 946.179 2091.69 954.692C2095.95 962.901 2103.55 976.582 2108.42 985.094L2116.93 1000.3L2215.13 1001.21C2278.06 1001.51 2314.24 1000.9 2316.37 998.776C2318.5 996.647 2317.28 992.695 2312.72 986.615C2309.07 981.75 2306.03 977.19 2306.03 976.278C2306.03 975.67 2296 958.036 2283.84 937.666C2271.68 916.993 2260.73 897.839 2259.52 895.407C2258.3 892.975 2254.65 886.59 2251.31 881.726C2247.96 876.557 2244.01 869.869 2242.19 866.525C2240.36 863.18 2237.32 857.708 2235.19 854.364C2233.07 851.019 2223.94 835.21 2214.82 819.401C2205.7 803.591 2196.58 787.782 2194.45 784.438C2192.33 781.093 2189.29 775.621 2187.46 772.277C2185.64 768.932 2181.69 761.94 2178.34 757.075C2175 751.907 2171.35 745.827 2170.13 743.394C2167.7 737.922 2133.95 680.157 2129.7 673.469C2121.79 661.612 2122.7 658.267 2142.47 624.824C2145.81 619.048 2152.19 607.495 2156.76 599.59C2161.01 591.382 2168.92 577.397 2173.78 568.58C2178.95 559.459 2186.55 545.474 2190.81 537.569C2195.37 529.665 2201.75 518.112 2205.1 512.335C2208.74 506.559 2215.13 494.702 2219.38 486.493C2223.64 477.98 2230.03 466.427 2233.67 460.651C2237.02 454.874 2243.4 443.321 2247.96 435.417C2252.22 427.512 2260.43 412.919 2265.6 403.494C2271.07 394.069 2276.54 384.036 2277.76 381.604C2278.97 379.172 2283.84 370.355 2288.4 362.147C2293.26 353.938 2296.61 345.425 2295.69 343.297C2293.57 337.521 2130.61 337.217 2123.31 342.993C2119.36 346.033 2103.55 371.571 2095.34 387.685C2094.13 390.117 2090.48 396.197 2087.13 401.366C2083.79 406.23 2079.84 413.223 2078.01 416.567C2076.19 419.911 2073.15 425.384 2071.02 428.728C2068.89 432.072 2060.08 447.274 2051.26 462.475C2042.44 477.98 2033.62 491.965 2031.19 493.79C2027.85 496.526 2024.5 492.878 2013.86 475.244C2006.87 463.083 1998.97 449.706 1996.53 445.45C1994.41 441.193 1989.85 433.593 1986.81 428.728C1983.46 423.56 1979.81 417.479 1978.6 415.047C1973.43 404.102 1940.29 349.074 1936.03 344.209C1931.47 339.649 1922.96 339.041 1841.79 339.041C1772.47 339.041 1752.71 339.953 1752.71 342.689ZM2389.33 860.444C2388.12 862.876 2385.69 865.004 2383.86 865.004C2379 865.004 2362.28 880.206 2359.84 886.894C2358.63 889.935 2356.5 892.367 2354.68 892.367C2353.16 892.367 2351.64 896.623 2351.64 901.792C2351.64 910 2352.24 910.912 2356.2 907.568C2358.63 905.44 2360.76 901.487 2360.76 898.447C2360.76 895.711 2367.44 887.198 2375.65 879.598C2387.21 868.653 2393.89 865.308 2405.14 863.484C2415.48 861.964 2418.22 860.748 2415.18 858.62C2408.18 854.364 2391.16 855.276 2389.33 860.444ZM2426.12 858.62C2425.21 860.444 2429.47 862.572 2435.85 863.484C2442.24 864.396 2449.53 866.525 2451.96 868.349C2454.4 869.869 2458.65 871.997 2461.08 873.213C2467.77 876.253 2475.98 886.59 2479.63 896.015C2481.45 900.879 2484.19 904.528 2485.71 904.528C2489.97 904.528 2488.75 893.279 2483.89 888.11C2481.45 885.678 2479.33 882.334 2479.33 881.118C2479.33 877.165 2462.3 865.004 2456.83 865.004C2454.7 865.004 2451.96 862.876 2450.75 860.444C2448.92 855.276 2429.16 854.06 2426.12 858.62ZM2387.21 885.374C2383.86 888.414 2384.77 963.205 2388.12 968.373C2392.68 975.974 2396.94 968.373 2397.85 950.132L2398.76 933.41L2409.4 932.498C2421.26 931.586 2424.3 933.714 2441.63 956.82C2447.4 965.029 2454.09 971.413 2456.52 971.413C2461.69 971.413 2462.6 960.772 2458.04 955.3C2456.52 953.172 2451.66 947.395 2447.71 942.531L2440.41 933.106L2450.75 923.073C2456.52 917.297 2461.08 910.608 2461.08 907.872C2461.08 902.704 2453.18 889.326 2447.71 885.678C2443.45 882.638 2389.94 882.638 2387.21 885.374ZM2438.59 894.799C2444.06 898.447 2445.88 907.568 2442.54 913.953C2439.8 919.121 2436.76 919.729 2419.13 919.121C2399.37 918.209 2398.76 917.905 2397.85 909.696C2396.02 894.495 2398.46 892.367 2417.61 892.367C2427.34 892.367 2436.76 893.583 2438.59 894.799ZM2488.45 928.85C2488.45 948.915 2491.49 956.212 2495.74 945.267C2500 933.714 2496.96 907.568 2491.18 907.568C2489.66 907.568 2488.45 916.993 2488.45 928.85ZM2345.55 928.85C2345.55 935.538 2347.08 941.011 2348.6 941.011C2350.42 941.011 2351.64 935.538 2351.64 928.85C2351.64 922.161 2350.42 916.689 2348.6 916.689C2347.08 916.689 2345.55 922.161 2345.55 928.85Z" fill="white"/>
<path d="M2351.64 953.172C2351.64 963.509 2375.35 992.391 2383.86 992.695C2385.69 992.695 2389.03 994.823 2391.16 997.255C2396.63 1003.94 2448.32 1003.94 2450.75 997.255C2451.96 994.823 2455 992.695 2458.04 992.695C2465.04 992.695 2488.45 965.941 2488.45 958.34C2488.45 951.652 2481.15 953.172 2479.93 960.164C2478.72 966.245 2462.91 983.574 2458.35 983.574C2456.83 983.574 2454.09 985.398 2452.88 987.527C2449.84 992.999 2426.43 996.039 2406.66 993.607C2393.29 992.087 2388.73 989.655 2376.26 977.798C2368.36 970.197 2360.76 960.164 2359.54 955.3C2357.41 945.875 2351.64 944.355 2351.64 953.172Z" fill="white"/>
</svg>
