<svg width="2280" height="372" viewBox="0 0 2280 372" fill="none" xmlns="http://www.w3.org/2000/svg">
<path fill-rule="evenodd" clip-rule="evenodd" d="M0 371.739H343.128V306.385H110.295V206.297H326.799V140.942H110.295V61.2822H343.128V0H0V371.739ZM847.626 59.2459C812.906 24.5258 767.966 0.0129626 714.868 0.0129626H402.361V371.752H718.953C718.953 371.752 782.271 371.752 831.284 328.861C880.31 283.921 898.688 234.908 898.688 187.919C898.688 140.943 882.359 91.9167 847.626 59.2459ZM761.844 259.395C720.989 308.434 657.671 306.385 657.671 306.385H510.62V61.2822H651.549C688.305 61.2822 741.417 81.7096 770.015 118.466C796.564 157.271 800.65 212.432 761.844 259.395ZM1107.02 0L886.432 371.739H986.506L1029.4 294.128H1301.04L1350.05 371.739H1448.11L1229.55 0H1107.02ZM1055.96 249.188L1168.29 57.1967L1280.63 249.188H1055.96ZM1597.23 0H1484.88V371.739H1874.99V306.385H1597.23V0ZM2279.41 61.2822V0H1936.27V371.739H2279.41V306.385H2046.56V206.297H2263.07V140.942H2046.56V61.2822H2279.41Z" fill="white"/>
</svg>
