<svg width="2500" height="718" viewBox="0 0 2500 718" fill="none" xmlns="http://www.w3.org/2000/svg">
<g clip-path="url(#clip0_1_28)">
<path d="M906.677 6.91637e-05V718H1129.29V166.227L1273.52 718.052H1499.26L1643.49 166.227V718.052H1866.1V6.91637e-05H1577.65C1507.15 -1.04505 1487.56 61.0353 1471.04 131.738L1386.39 448.41L1301.73 131.738C1285.12 61.0353 1265.52 -1.04505 1195.13 6.91637e-05H906.677ZM690.336 501.712C752.155 501.973 790.302 450.762 790.668 388.838C790.302 324.563 752.155 273.352 690.336 272.83H530.432V197.528H828.293V6.91637e-05H270.197V272.83H104.022C39.6423 273.3 1.54756 324.511 0.554688 388.786C1.54756 450.762 39.6423 501.921 104.022 501.659H270.197V718H530.432V501.659L690.336 501.712ZM2242.35 718C2043.72 717.321 1933.51 556.528 1935.08 357.432C1933.51 159.904 2043.72 -0.888286 2242.35 6.91637e-05H2499.45V213.205H2305.05C2224.37 213.937 2182.56 278.526 2182.77 357.432C2182.56 437.959 2224.32 502.548 2305.05 501.659H2499.45V718H2242.35Z" fill="white"/>
</g>
<defs>
<clipPath id="clip0_1_28">
<rect width="2500" height="718" fill="white"/>
</clipPath>
</defs>
</svg>
